<?xml version="1.0" encoding="utf-8"?>
<!-- Generator: Adobe Illustrator 22.0.1, SVG Export Plug-In . SVG Version: 6.00 Build 0)  -->
<svg version="1.1" id="Layer_1" xmlns="http://www.w3.org/2000/svg" xmlns:xlink="http://www.w3.org/1999/xlink" x="0px" y="0px"
	 viewBox="0 0 675.3 619" style="enable-background:new 0 0 675.3 619;" xml:space="preserve">
<style type="text/css">
	.st0{fill:#E6E7E8;}
	.st1{fill:#771119;}
</style>
<g>
	<path class="st0" d="M13.6,600v-46.5h6.5L35,577.1c3.4,5.4,6.1,10.3,8.3,15.1l0.1-0.1c-0.6-6.2-0.7-11.9-0.7-19.1v-19.4h5.7V600
		h-6.1l-14.7-23.6c-3.2-5.2-6.3-10.5-8.7-15.5l-0.2,0.1c0.3,5.9,0.5,11.4,0.5,19.2V600H13.6z"/>
	<path class="st0" d="M101.1,576.3c0,16-9.7,24.5-21.6,24.5c-12.3,0-20.9-9.5-20.9-23.6c0-14.8,9.2-24.4,21.6-24.4
		C92.9,552.8,101.1,562.6,101.1,576.3z M65,577.1c0,9.9,5.4,18.8,14.8,18.8c9.5,0,14.9-8.8,14.9-19.3c0-9.2-4.8-18.9-14.8-18.9
		C70,557.7,65,566.9,65,577.1z"/>
	<path class="st0" d="M118.9,600l-11.8-46.5h6.3l5.5,23.5c1.4,5.8,2.6,11.6,3.4,16.1h0.1c0.8-4.6,2.2-10.1,3.8-16.1l6.2-23.4h6.3
		l5.7,23.6c1.3,5.5,2.6,11,3.2,15.9h0.1c1-5.1,2.3-10.3,3.7-16.1l6.1-23.4h6.1L150.7,600h-6.3l-5.9-24.2c-1.4-5.9-2.4-10.5-3-15.2
		h-0.1c-0.8,4.6-1.9,9.2-3.6,15.2l-6.6,24.2H118.9z"/>
	<path class="st0" d="M189.3,554.1c2.9-0.5,6.7-0.9,11.5-0.9c5.9,0,10.3,1.4,13,3.9c2.6,2.2,4.1,5.6,4.1,9.7c0,4.2-1.2,7.5-3.6,9.9
		c-3.2,3.4-8.3,5.1-14.2,5.1c-1.8,0-3.4-0.1-4.8-0.4V600h-6V554.1z M195.3,576.5c1.3,0.3,3,0.5,5,0.5c7.2,0,11.6-3.5,11.6-9.9
		c0-6.1-4.3-9.1-11-9.1c-2.6,0-4.6,0.2-5.7,0.5V576.5z"/>
	<path class="st0" d="M235.9,585.4l-4.8,14.6h-6.2l15.8-46.5h7.2l15.9,46.5h-6.4l-5-14.6H235.9z M251.2,580.7l-4.5-13.4
		c-1-3-1.7-5.8-2.4-8.5h-0.1c-0.7,2.8-1.4,5.6-2.3,8.4l-4.5,13.4H251.2z"/>
	<path class="st0" d="M273.1,554.2c3-0.6,7.4-1,11.5-1c6.4,0,10.5,1.2,13.4,3.8c2.3,2.1,3.7,5.2,3.7,8.8c0,6.1-3.9,10.2-8.8,11.9
		v0.2c3.6,1.2,5.7,4.5,6.8,9.4c1.5,6.5,2.6,11,3.6,12.8h-6.2c-0.8-1.3-1.8-5.3-3.1-11.1c-1.4-6.4-3.9-8.8-9.3-9h-5.7V600h-6V554.2z
		 M279.1,575.4h6.1c6.4,0,10.5-3.5,10.5-8.8c0-6-4.3-8.6-10.7-8.7c-2.9,0-5,0.3-5.9,0.6V575.4z"/>
	<path class="st0" d="M321.5,558.7h-14.1v-5.1h34.4v5.1h-14.2V600h-6.1V558.7z"/>
	<path class="st0" d="M406.2,576.3c0,16-9.7,24.5-21.6,24.5c-12.3,0-20.9-9.5-20.9-23.6c0-14.8,9.2-24.4,21.6-24.4
		C398,552.8,406.2,562.6,406.2,576.3z M370.1,577.1c0,9.9,5.4,18.8,14.8,18.8c9.5,0,14.9-8.8,14.9-19.3c0-9.2-4.8-18.9-14.8-18.9
		C375.1,557.7,370.1,566.9,370.1,577.1z"/>
	<path class="st0" d="M416.5,553.6h25v5h-19v15.4H440v5h-17.6v21h-6V553.6z"/>
	<path class="st0" d="M493.6,578.3h-18.1V595h20.1v5h-26.1v-46.5h25.1v5h-19.1v14.7h18.1V578.3z"/>
	<path class="st0" d="M531.4,600l-5.9-10.3c-2.4-3.9-3.9-6.5-5.4-9.2H520c-1.3,2.7-2.6,5.2-5,9.2l-5.6,10.2h-6.9l14.2-23.5l-13.6-23
		h7l6.1,10.9c1.7,3,3,5.4,4.3,7.9h0.2c1.3-2.8,2.5-4.9,4.2-7.9l6.3-10.9h6.9l-14.1,22.6l14.5,23.8H531.4z"/>
	<path class="st0" d="M571.9,578.3h-18.1V595H574v5h-26.1v-46.5h25.1v5h-19.1v14.7h18.1V578.3z"/>
	<path class="st0" d="M584.2,553.6h6V595h19.9v5h-25.8V553.6z"/>
	<path class="st0" d="M626.8,585.4l-4.8,14.6h-6.2l15.8-46.5h7.2l15.9,46.5h-6.4l-5-14.6H626.8z M642,580.7l-4.5-13.4
		c-1-3-1.7-5.8-2.4-8.5h-0.1c-0.7,2.8-1.4,5.6-2.3,8.4l-4.5,13.4H642z"/>
</g>
<g>
	<g>
		<path class="st0" d="M136.1,499.3c-9,3.2-26.8,8.5-47.8,8.5c-23.6,0-43-6-58.2-20.6c-13.4-12.9-21.7-33.7-21.7-58
			c0.2-46.4,32.1-80.4,84.3-80.4c18,0,32.1,3.9,38.8,7.2l-4.9,16.4c-8.3-3.7-18.7-6.7-34.4-6.7c-37.9,0-62.6,23.6-62.6,62.6
			c0,39.5,23.8,62.8,60.1,62.8c13.2,0,22.2-1.8,26.8-4.2v-46.4H84.8v-16.2h51.3V499.3z"/>
		<path class="st0" d="M156.7,352.5c10.2-2.1,24.7-3.2,38.6-3.2c21.5,0,35.4,3.9,45.1,12.7c7.9,6.9,12.2,17.6,12.2,29.6
			c0,20.6-12.9,34.2-29.3,39.7v0.7c12,4.2,19.2,15.3,22.9,31.4c5.1,21.7,8.8,36.7,12,42.7h-20.8c-2.5-4.4-6-17.8-10.4-37.2
			c-4.6-21.5-12.9-29.6-31.2-30.3h-18.9v67.5h-20.1V352.5z M176.8,423.5h20.6c21.5,0,35.1-11.8,35.1-29.6
			c0-20.1-14.6-28.9-35.8-29.1c-9.7,0-16.6,0.9-19.9,1.8V423.5z"/>
		<path class="st0" d="M403.9,426.7c0,53.6-32.6,82-72.3,82c-41.1,0-70-31.9-70-79c0-49.4,30.7-81.8,72.3-81.8
			C376.4,347.9,403.9,380.5,403.9,426.7z M283,429.3c0,33.3,18,63.1,49.7,63.1c31.9,0,49.9-29.3,49.9-64.7c0-31-16.2-63.3-49.7-63.3
			C299.7,364.3,283,395.1,283,429.3z"/>
		<path class="st0" d="M439.9,350.5v92.2c0,34.9,15.5,49.7,36.3,49.7c23.1,0,37.9-15.2,37.9-49.7v-92.2h20.3v90.8
			c0,47.8-25.2,67.5-58.9,67.5c-31.9,0-55.9-18.3-55.9-66.5v-91.7H439.9z"/>
		<path class="st0" d="M558.9,352.3c9.7-1.6,22.4-3,38.6-3c19.9,0,34.4,4.6,43.7,12.9c8.5,7.4,13.6,18.7,13.6,32.6
			c0,14.1-4.2,25.2-12,33.3c-10.6,11.3-28,17.1-47.6,17.1c-6,0-11.6-0.2-16.2-1.4v62.4h-20.1V352.3z M579,427.4
			c4.4,1.2,9.9,1.6,16.6,1.6c24.3,0,39-11.8,39-33.3c0-20.6-14.6-30.5-36.7-30.5c-8.8,0-15.5,0.7-18.9,1.6V427.4z"/>
	</g>
	<g>
		<path class="st1" d="M397.4,313.5L337,192.6h-54.4v120.8h-43.5V26.7h111.2c54.4,0,89,35,89,83.8c0,41.1-25,67.3-57.2,76.1
			l66.1,126.9H397.4z M347.1,65.8h-64.4v89.8h64.4c29,0,48.7-16.5,48.7-44.7C395.8,82.7,376.1,65.8,347.1,65.8"/>
		<path class="st0" d="M561.4,315.9c-43.1,0-71.3-10.9-98.3-37.9l20.9-20.9c23.8,23.8,45.9,31.4,78.1,31.4
			c41.9,0,67.7-19.7,67.7-53.2c0-14.9-4.4-27.8-13.7-35.8c-9.3-8.1-16.5-10.5-37.5-13.7l-33.4-5.2c-22.6-3.6-40.3-10.9-52.8-21.8
			c-14.5-12.9-21.8-30.6-21.8-53.6c0-48.7,35-81,91.8-81c36.7,0,60.8,9.3,85.4,31.4l-19.7,19.7c-17.7-16.1-36.7-24.6-66.9-24.6
			c-38.3,0-60.4,21.3-60.4,53.2c0,14.1,4,25.4,12.9,33c8.9,7.6,23.8,13.3,38.7,15.7l31.4,4.8c27,4,40.3,9.7,52.4,20.1
			c15.7,13.3,24.2,33,24.2,56.8C660.5,284.9,621.1,315.9,561.4,315.9"/>
		<polygon class="st0" points="20.7,313.5 20.7,26.7 198.7,26.7 198.7,54.1 51.3,54.1 51.3,155.2 177,155.2 177,182.6 51.3,182.6 
			51.3,286.1 198.7,286.1 198.7,313.5 		"/>
	</g>
</g>
</svg>
